name rise38.3101peak57.3503fall81.6963.mot
datacolumns 19
datarows 12
range 20.30992600000000 20.32826200000000
endheader
time	ground_force1_vx	ground_force1_vy	ground_force1_vz	ground_force1_px	ground_force1_py	ground_force1_pz	ground_force2_vx	ground_force2_vy	ground_force2_vz	ground_force2_px	ground_force2_py	ground_force2_pz	ground_torque1_x	ground_torque1_y	ground_torque1_z	ground_torque2_x	ground_torque2_y	ground_torque2_z	
20.30992600000000	61.68075300000000	773.08017199999995	63.85100900000000	0.33909800000000	0.00000000000000	0.11416500000000	0.00000000000000	0.00000000000000	0.00000000000000	0.00000000000000	0.00000000000000	0.00000000000000	0.00000000000000	28.09167900000000	0.00000000000000	0.00000000000000	0.00000000000000	0.00000000000000	
20.31159200000000	60.88351600000000	774.39160600000002	64.00921200000001	0.33759800000000	0.00000000000000	0.11425000000000	0.00000000000000	0.00000000000000	0.00000000000000	0.00000000000000	0.00000000000000	0.00000000000000	0.00000000000000	28.16327700000000	0.00000000000000	0.00000000000000	0.00000000000000	0.00000000000000	
20.31325800000000	60.09410300000000	775.60275700000000	64.16407900000000	0.33612200000000	0.00000000000000	0.11433400000000	0.00000000000000	0.00000000000000	0.00000000000000	0.00000000000000	0.00000000000000	0.00000000000000	0.00000000000000	28.23289000000000	0.00000000000000	0.00000000000000	0.00000000000000	0.00000000000000	
20.31492900000000	59.31296600000000	776.71261500000003	64.31515899999999	0.33466900000000	0.00000000000000	0.11441800000000	0.00000000000000	0.00000000000000	0.00000000000000	0.00000000000000	0.00000000000000	0.00000000000000	0.00000000000000	28.30032800000000	0.00000000000000	0.00000000000000	0.00000000000000	0.00000000000000	
20.31659500000000	58.54046400000000	777.72020499999996	64.46193400000000	0.33324000000000	0.00000000000000	0.11450100000000	0.00000000000000	0.00000000000000	0.00000000000000	0.00000000000000	0.00000000000000	0.00000000000000	0.00000000000000	28.36536700000000	0.00000000000000	0.00000000000000	0.00000000000000	0.00000000000000	
20.31826400000000	57.77686700000000	778.62460699999997	64.60383200000000	0.33183700000000	0.00000000000000	0.11458400000000	0.00000000000000	0.00000000000000	0.00000000000000	0.00000000000000	0.00000000000000	0.00000000000000	0.00000000000000	28.42775000000000	0.00000000000000	0.00000000000000	0.00000000000000	0.00000000000000	
20.31992500000000	57.02236200000000	779.42496500000004	64.74023000000000	0.33045800000000	0.00000000000000	0.11466600000000	0.00000000000000	0.00000000000000	0.00000000000000	0.00000000000000	0.00000000000000	0.00000000000000	0.00000000000000	28.48719500000000	0.00000000000000	0.00000000000000	0.00000000000000	0.00000000000000	
20.32159900000000	56.27705600000000	780.12050599999998	64.87046100000001	0.32910500000000	0.00000000000000	0.11474700000000	0.00000000000000	0.00000000000000	0.00000000000000	0.00000000000000	0.00000000000000	0.00000000000000	0.00000000000000	28.54339600000000	0.00000000000000	0.00000000000000	0.00000000000000	0.00000000000000	
20.32326000000000	55.54097500000000	780.71055400000000	64.99382199999999	0.32777700000000	0.00000000000000	0.11482800000000	0.00000000000000	0.00000000000000	0.00000000000000	0.00000000000000	0.00000000000000	0.00000000000000	0.00000000000000	28.59602800000000	0.00000000000000	0.00000000000000	0.00000000000000	0.00000000000000	
20.32492600000000	54.81407700000000	781.19453799999997	65.10957999999999	0.32647400000000	0.00000000000000	0.11490700000000	0.00000000000000	0.00000000000000	0.00000000000000	0.00000000000000	0.00000000000000	0.00000000000000	0.00000000000000	28.64475000000000	0.00000000000000	0.00000000000000	0.00000000000000	0.00000000000000	
20.32659500000000	54.09624800000000	781.57201299999997	65.21698100000000	0.32519500000000	0.00000000000000	0.11498500000000	0.00000000000000	0.00000000000000	0.00000000000000	0.00000000000000	0.00000000000000	0.00000000000000	0.00000000000000	28.68920800000000	0.00000000000000	0.00000000000000	0.00000000000000	0.00000000000000	
20.32826200000000	53.38731000000000	781.84266400000001	65.31525300000000	0.32394200000000	0.00000000000000	0.11506200000000	0.00000000000000	0.00000000000000	0.00000000000000	0.00000000000000	0.00000000000000	0.00000000000000	0.00000000000000	28.72904000000000	0.00000000000000	0.00000000000000	0.00000000000000	0.00000000000000	
